<svg width="18" height="18" viewBox="0 0 18 18" fill="none" xmlns="http://www.w3.org/2000/svg">
<path fill-rule="evenodd" clip-rule="evenodd" d="M10.0733 0.66612C11.3923 0.669712 11.7151 0.682605 12.4422 0.717115C13.328 0.756162 13.9338 0.899375 14.4645 1.10453C15.0181 1.31286 15.5229 1.64177 15.9398 2.06505C16.3665 2.48185 16.6921 2.98322 16.9038 3.54323C17.109 4.07081 17.2523 4.67966 17.2913 5.56527C17.3248 6.3272 17.332 6.64414 17.3334 8.1442L17.3335 9.45591C17.3321 11.3068 17.3211 11.61 17.2848 12.4355C17.2458 13.3211 17.1024 13.9267 16.8973 14.4575C16.4642 15.5775 15.5784 16.4631 14.458 16.8962C13.9305 17.1013 13.3215 17.2446 12.4357 17.2836C11.5466 17.3228 11.2633 17.3324 8.99994 17.3324L8.76489 17.3324C6.71554 17.3317 6.42138 17.3214 5.56416 17.2836C4.67825 17.2446 4.07259 17.1013 3.54172 16.8962C2.98809 16.6879 2.48331 16.3589 2.06643 15.9357C1.64306 15.5189 1.31422 15.0175 1.10254 14.4575C0.89734 13.9299 0.753971 13.3211 0.714916 12.4355C0.682836 11.7053 0.670498 11.3838 0.667114 10.038L0.667219 7.93041C0.670811 6.61164 0.683707 6.28896 0.718224 5.56196C0.757278 4.67635 0.90052 4.07081 1.10572 3.54005C1.31422 2.98653 1.64306 2.48185 2.06643 2.06505C2.48331 1.63846 2.98478 1.31286 3.54503 1.10122C4.07258 0.896196 4.68156 0.752855 5.56734 0.713808C6.29767 0.681734 6.61924 0.669398 7.96529 0.666016L10.0733 0.66612ZM9.87873 2.17972H8.14178C6.69373 2.18256 6.3913 2.19459 5.64227 2.22785C4.83141 2.26372 4.38846 2.40045 4.09536 2.51441C3.73382 2.64783 3.40815 2.85947 3.13795 3.13623C2.85783 3.40333 2.64614 3.73211 2.51257 4.09357C2.39858 4.38662 2.26183 4.82618 2.22608 5.64018C2.1898 6.45112 2.17883 6.74007 2.1774 8.54382V9.46982C2.17883 11.2732 2.1898 11.5596 2.22608 12.3736C2.26183 13.1843 2.39858 13.6272 2.51257 13.9202C2.64614 14.2816 2.85782 14.6072 3.13464 14.8775C3.40166 15.1542 3.73064 15.3659 4.09205 15.4994C4.38515 15.6134 4.8248 15.7501 5.63896 15.7858C6.38529 15.8192 6.68962 15.8312 8.13837 15.834H9.8743C11.3224 15.8312 11.6247 15.8192 12.3738 15.7858C13.1847 15.7501 13.6276 15.6134 13.9207 15.4994C14.6469 15.2193 15.2233 14.6431 15.5035 13.9169C15.6175 13.6239 15.7542 13.1843 15.7901 12.3703C15.8248 11.5889 15.8364 11.2963 15.8385 9.67896V8.33462C15.8364 6.71677 15.8248 6.42162 15.7901 5.64018C15.7542 4.82936 15.6175 4.38662 15.5035 4.09357C15.3699 3.73211 15.1582 3.40651 14.8814 3.13623C14.6144 2.85947 14.2854 2.64783 13.924 2.51441C13.6309 2.40045 13.1912 2.26372 12.3771 2.22785C11.6307 2.19459 11.3288 2.18256 9.87873 2.17972ZM9.00312 4.7187C11.3675 4.7187 13.2856 6.63644 13.2856 9.00036C13.2856 11.3643 11.3675 13.282 9.00312 13.282C6.63886 13.282 4.72061 11.3643 4.72061 9.00036C4.72061 6.63644 6.63886 4.7187 9.00312 4.7187ZM9.00312 6.22296C7.46931 6.22296 6.22516 7.46673 6.22516 9.00036C6.22516 10.534 7.46931 11.7778 9.00312 11.7778C10.5371 11.7778 11.7811 10.534 11.7811 9.00036C11.7811 7.46673 10.5371 6.22296 9.00312 6.22296ZM13.455 3.54985C14.0072 3.54985 14.4548 3.99729 14.4548 4.54942C14.4548 5.10141 14.0072 5.54899 13.455 5.54899C12.9028 5.54899 12.4552 5.10141 12.4552 4.54942C12.4552 3.99729 12.9028 3.54985 13.455 3.54985Z" fill="white"/>
</svg>
