<svg width="375" height="375" viewBox="0 0 375 375" fill="none" xmlns="http://www.w3.org/2000/svg">
<g filter="url(#filter0_dd_556_27774)">
<rect x="33" y="33" width="309" height="309" rx="20.6" fill="white" shape-rendering="crispEdges"/>
<path fill-rule="evenodd" clip-rule="evenodd" d="M167.539 67.9612V73.715H162.384C155.694 73.715 149.09 76.528 146.501 80.4789C144.005 84.2879 142.615 95.0194 144.111 98.9371C145.156 101.676 145.973 101.31 166.014 89.093L186.83 76.4027L206.273 88.3616C216.967 94.9388 226.149 100.053 226.676 99.7285C228.133 98.8284 227.686 88.9766 225.965 84.0642C223.843 78.0137 219.188 74.9923 210.617 74.1088L203.341 73.357V67.5981V61.8379L212.693 62.545C223.378 63.3531 230.515 65.9423 235.74 70.9059C243.594 78.3666 244.973 85.2111 242.362 103.802C240.105 119.88 239.871 131.671 241.738 135.159C243.358 138.187 248.456 140.858 254.805 142.009C259.363 142.833 259.6 143.119 259.6 147.788C259.6 152.653 259.545 152.707 253.638 153.593C249.59 154.2 246.512 155.652 244.048 158.115C240.864 161.301 240.421 162.688 240.421 169.475C240.421 173.726 241.322 183.275 242.424 190.693C244.916 207.469 243.608 215.936 237.438 222.965C231.441 229.794 224.347 232.405 209.577 233.219L196.948 233.915L196.928 217.426C196.917 208.358 196.483 200.269 195.963 199.452C195.421 198.6 190.787 197.781 185.111 197.534L175.205 197.102L175.2 206.692C175.196 211.966 174.82 220.237 174.363 225.073L173.532 233.865L161.266 233.247C147.468 232.552 140.878 230.338 134.639 224.299C128.068 217.941 126.017 208.406 128.102 193.908C131.087 173.132 131.458 168.067 130.301 163.874C128.745 158.237 124.06 154.616 116.944 153.548C111.375 152.713 111.28 152.617 111.28 147.788C111.28 143.119 111.517 142.833 116.075 142.009C122.661 140.816 127.538 138.16 129.346 134.779C131.374 130.991 131.138 120.772 128.636 104.08C127.503 96.5179 126.874 88.8935 127.24 87.138C127.604 85.3811 128.199 82.5157 128.559 80.7704C129.385 76.7901 136.079 69.0659 140.837 66.6059C145.877 63.9988 152.959 62.4862 160.827 62.3353L167.539 62.2074V67.9612ZM166.629 104.8L147.179 116.549L147.13 123.63C147.062 133.497 143.001 141.139 135.847 144.86L130.367 147.711L134.903 149.863C146.423 155.331 148.563 163.368 145.189 188.485C143.015 204.666 143.013 205.715 145.152 211.315C146.964 216.057 148.409 217.646 152.672 219.583C155.575 220.901 158.616 221.992 159.43 222.007C160.469 222.026 161.043 216.332 161.348 202.961C161.589 192.469 162.073 183.671 162.425 183.41C162.776 183.148 173.565 183.157 186.399 183.43L209.734 183.924V195.12C209.734 201.278 210.107 209.893 210.565 214.266C211.364 221.92 211.512 222.187 214.534 221.429C220.174 220.014 223.629 216.813 225.879 210.921C227.982 205.41 227.977 204.307 225.759 188.283C224.3 177.747 223.764 169.183 224.329 165.416C225.431 158.067 230.054 152.212 237.15 149.18L242.339 146.963L238.218 146.047C229.127 144.024 223.82 135.02 223.806 121.593L223.799 115.128L205.417 104.012C195.308 97.8976 186.821 92.9301 186.558 92.9723C186.294 93.0158 177.327 98.3374 166.629 104.8Z" fill="#FF6B01"/>
<path fill-rule="evenodd" clip-rule="evenodd" d="M169.037 141.044C171.693 143.446 172.134 149.165 169.841 151.458C168.997 152.302 166.523 152.992 164.343 152.992C159.456 152.992 157.311 150.991 157.311 146.434C157.311 139.775 164.158 136.627 169.037 141.044ZM214.137 141.77C216.782 145.547 216.648 148.289 213.683 150.972C210.198 154.125 204.501 153.141 202.179 148.984C200.494 145.966 200.526 145.267 202.488 142.271C205.318 137.951 211.283 137.694 214.137 141.77Z" fill="#08590C"/>
<path fill-rule="evenodd" clip-rule="evenodd" d="M175.063 277.152C176.814 278.378 177.186 281.015 175.804 282.397C173.842 284.359 168.707 282.692 168.707 280.094C168.707 278.43 170.91 276.405 173.072 276.082C173.282 276.05 174.178 276.532 175.063 277.152ZM189.3 276.73C190.689 277.258 191.157 277.953 191.157 279.482C191.157 282.031 189.975 283.266 187.536 283.266C183.853 283.266 182.531 279.248 185.525 277.152C187.431 275.816 187.018 275.863 189.3 276.73ZM201.115 278.046C202.323 279.583 202.256 280.755 200.883 282.129C198.562 284.449 194.054 282.803 194.054 279.635C194.054 276.467 198.999 275.354 201.115 278.046ZM143.724 291.594L143.721 306.441H140.721C138.668 306.441 137.584 306.084 137.287 305.31C136.893 304.285 136.701 304.285 135.237 305.31C132.697 307.089 127.921 306.764 125.398 304.641C120.268 300.325 121.037 289.455 126.678 286.538C129.139 285.265 132.702 285.111 134.716 286.189C136.04 286.897 136.117 286.656 136.117 281.843V276.749H139.922H143.728L143.724 291.594ZM214.08 281.637C213.826 284.326 213.616 291.007 213.613 296.483L213.608 306.441H209.987H206.366V291.595V276.749H210.454H214.541L214.08 281.637ZM226.644 291.595V306.441H222.661H218.677V291.595V276.749H222.661H226.644V291.595ZM94.8368 287.19C94.8368 290.377 94.1039 291.233 91.3765 291.233C88.0828 291.233 86.1463 292.976 86.1463 295.94C86.1463 298.899 87.9221 300.479 91.5779 300.775C94.3538 301 94.4842 301.123 94.6992 303.725L94.9245 306.441H90.4633C84.3068 306.441 81.2651 304.878 79.4538 300.783C75.8704 292.683 81.1007 285.545 90.6726 285.471C94.6029 285.441 94.8368 285.538 94.8368 287.19ZM114.174 286.859C117.212 288.71 118.737 291.795 118.733 296.085C118.728 302.637 114.738 306.441 107.873 306.441C105.841 306.441 103.204 305.937 102.011 305.319C95.3105 301.855 95.38 290.379 102.124 286.762C105.444 284.981 111.171 285.027 114.174 286.859ZM164.334 287.431C166.62 289.532 168.578 295.153 167.764 297.277C167.386 298.262 166.205 298.475 161.125 298.475C157.639 298.475 154.947 298.779 154.947 299.174C154.947 300.585 158.137 301.527 161.865 301.218C165.612 300.907 165.687 300.939 166.112 303.063C166.349 304.251 166.357 305.411 166.128 305.64C165.9 305.869 163.338 306.175 160.436 306.323C156.536 306.519 154.558 306.278 152.849 305.393C146.635 302.181 145.888 292.909 151.438 287.885C153.651 285.882 154.619 285.565 158.737 285.496C161.516 285.45 162.577 285.817 164.334 287.431ZM178.884 292.835L180.537 299.525L181.427 295.198C183.441 285.404 183.173 285.827 187.213 286.073C189.183 286.193 190.879 286.374 190.982 286.475C191.086 286.576 189.852 290.213 188.24 294.558C183.348 307.753 184.255 306.442 180.025 306.436L176.311 306.431L173.127 297.202C171.376 292.126 169.8 287.586 169.626 287.111C169.414 286.536 170.475 286.173 172.809 286.024C174.735 285.901 176.518 285.878 176.771 285.973C177.024 286.068 177.974 289.156 178.884 292.835ZM245.488 286.533C248.668 288.177 249.278 290.043 249.433 298.611L249.577 306.441H246.481C244.779 306.441 243.184 306.115 242.937 305.715C242.637 305.23 242.038 305.23 241.132 305.715C238.804 306.961 234.24 306.566 232.173 304.94C229.608 302.922 229.46 298.033 231.894 295.753C233.923 293.852 236.932 292.681 239.787 292.681C241.219 292.681 241.866 292.369 241.663 291.776C241.458 291.181 239.882 290.886 237.075 290.916C234.724 290.941 232.56 290.615 232.267 290.191C231.233 288.696 231.734 286.832 233.343 286.186C235.975 285.128 243.168 285.333 245.488 286.533ZM266.513 286.571C267.366 287.598 267.512 287.598 268.087 286.571C268.495 285.842 269.74 285.439 271.581 285.439H274.442V296.374C274.442 312.495 272.946 314.77 262.348 314.77C259.081 314.77 256.112 314.444 255.749 314.046C255.363 313.62 255.35 312.37 255.72 311.02L256.35 308.72L260.338 309.132C264.695 309.581 267.2 308.285 267.2 305.579C267.2 304.458 266.953 304.35 265.799 304.968C263.717 306.081 259.057 305.875 257.218 304.587C254.843 302.924 253.44 299.712 253.44 295.94C253.44 289.732 257.144 285.439 262.501 285.439C264.404 285.439 265.932 285.87 266.513 286.571ZM294.02 286.538C296.786 287.968 298.341 291.078 298.341 295.18V298.475L291.642 298.499L284.943 298.523L286.709 299.994C288.095 301.147 289.337 301.424 292.463 301.279C296.307 301.102 296.469 301.169 297.009 303.188C297.317 304.34 297.389 305.461 297.171 305.681C296.951 305.9 293.841 306.079 290.259 306.079H283.745L281.266 303.374C276.861 298.567 277.92 290.168 283.349 286.859C286.142 285.154 291.059 285.007 294.02 286.538ZM201.769 291.052C201.514 293.741 201.304 298.303 201.301 301.191L201.296 306.441H197.675H194.054V296.302V286.163H198.142H202.23L201.769 291.052ZM156.214 290.567C153.864 291.935 154.708 293.405 157.843 293.405C161.041 293.405 161.84 291.872 159.34 290.534C157.673 289.642 157.804 289.64 156.214 290.567ZM286.837 290.966C284.46 292.631 285.008 293.405 288.564 293.405C291.789 293.405 292.302 293.051 291.269 291.542C290.3 290.127 288.39 289.879 286.837 290.966ZM105.754 291.53C104.425 293.13 104.106 297.208 105.153 299.199C107.335 303.349 111.942 300.123 111.192 294.97C110.77 292.077 109.604 290.509 107.873 290.509C107.174 290.509 106.22 290.968 105.754 291.53ZM262.702 291.275C262.022 291.672 261.252 293.13 260.992 294.515C260.184 298.823 263.76 302.349 266.331 299.779C267.599 298.51 267.417 293.001 266.062 291.646C264.746 290.331 264.388 290.291 262.702 291.275ZM130.468 292.102C129.343 293.227 129.343 298.653 130.468 299.779C131.727 301.037 135.158 300.855 135.677 299.502C136.426 297.553 136.162 293.016 135.248 292.102C134.77 291.624 133.695 291.233 132.858 291.233C132.022 291.233 130.946 291.624 130.468 292.102ZM238.412 297.506C237.915 297.707 237.507 298.659 237.507 299.621C237.507 300.965 237.894 301.372 239.173 301.372C241.17 301.372 242.577 300.115 242.577 298.33C242.577 297.046 240.548 296.644 238.412 297.506Z" fill="#08590C"/>
</g>
<defs>
<filter id="filter0_dd_556_27774" x="0.0400009" y="0.0400009" width="374.92" height="374.92" filterUnits="userSpaceOnUse" color-interpolation-filters="sRGB">
<feFlood flood-opacity="0" result="BackgroundImageFix"/>
<feColorMatrix in="SourceAlpha" type="matrix" values="0 0 0 0 0 0 0 0 0 0 0 0 0 0 0 0 0 0 127 0" result="hardAlpha"/>
<feOffset/>
<feGaussianBlur stdDeviation="16.48"/>
<feComposite in2="hardAlpha" operator="out"/>
<feColorMatrix type="matrix" values="0 0 0 0 0.348594 0 0 0 0 0.492487 0 0 0 0 0.8625 0 0 0 0.25 0"/>
<feBlend mode="normal" in2="BackgroundImageFix" result="effect1_dropShadow_556_27774"/>
<feColorMatrix in="SourceAlpha" type="matrix" values="0 0 0 0 0 0 0 0 0 0 0 0 0 0 0 0 0 0 127 0" result="hardAlpha"/>
<feOffset dy="16.48"/>
<feGaussianBlur stdDeviation="8.24"/>
<feComposite in2="hardAlpha" operator="out"/>
<feColorMatrix type="matrix" values="0 0 0 0 0 0 0 0 0 0 0 0 0 0 0 0 0 0 0.25 0"/>
<feBlend mode="normal" in2="effect1_dropShadow_556_27774" result="effect2_dropShadow_556_27774"/>
<feBlend mode="normal" in="SourceGraphic" in2="effect2_dropShadow_556_27774" result="shape"/>
</filter>
</defs>
</svg>
