<svg width="215" height="214" viewBox="0 0 215 214" fill="none" xmlns="http://www.w3.org/2000/svg">
<g filter="url(#filter0_dd_561_28747)">
<rect x="11" y="10.5" width="193" height="193" rx="6.48488" fill="white"/>
<g filter="url(#filter1_i_561_28747)">
<path fill-rule="evenodd" clip-rule="evenodd" d="M105.451 37.6229C84.0899 48.1556 67.3349 77.3758 74.4012 91.7761C79.8722 102.932 90.0471 108.953 100.207 107.049C108.76 105.443 134.682 90.7906 132.618 88.7267C132.049 88.158 126.416 89.5245 120.098 91.7633C109.916 95.3711 107.587 95.4071 99.6045 92.0746L90.5978 88.315L104.751 84.9954C112.535 83.1683 122.829 79.3058 127.625 76.4108C133.904 72.6228 136.017 72.1699 135.171 74.7947C134.522 76.8019 128.004 80.7597 120.685 83.5904C113.369 86.421 107.368 89.5116 107.353 90.4586C107.312 92.8852 125.276 87.7 133.413 82.9342C139.272 79.5039 140.155 77.3655 139.846 67.332C139.625 60.0984 138.174 55.2682 136.004 54.5477C133.521 53.7217 132.993 54.8874 134.169 58.5956C136.133 64.7819 126.596 72.5533 109.743 78.4977C93.0836 84.3752 86.7378 83.611 86.7378 75.7211C86.7378 68.6599 108.055 43.5776 111.3 46.8226C115.402 50.9245 109.188 62.1133 99.1001 68.7886C84.9236 78.1709 92.1933 79.6943 109.437 70.9579C130.001 60.5385 138.15 46.591 129.015 37.4531C123.899 32.3399 116.053 32.3965 105.451 37.6229Z" fill="#02065C"/>
</g>
<g filter="url(#filter2_i_561_28747)">
<path fill-rule="evenodd" clip-rule="evenodd" d="M124.036 145.603C117.081 149.032 111.626 158.545 113.926 163.234C115.708 166.866 119.02 168.826 122.328 168.206C125.113 167.684 133.553 162.913 132.881 162.241C132.695 162.056 130.861 162.501 128.805 163.23C125.489 164.404 124.731 164.416 122.132 163.331L119.2 162.107L123.808 161.026C126.342 160.431 129.694 159.174 131.255 158.231C133.3 156.998 133.987 156.851 133.712 157.705C133.501 158.359 131.378 159.647 128.996 160.569C126.614 161.49 124.66 162.497 124.655 162.805C124.641 163.595 130.49 161.907 133.14 160.355C135.047 159.238 135.335 158.542 135.234 155.275C135.162 152.92 134.69 151.348 133.983 151.113C133.175 150.844 133.003 151.224 133.386 152.431C134.025 154.445 130.92 156.975 125.433 158.911C120.009 160.824 117.943 160.576 117.943 158.007C117.943 155.708 124.884 147.541 125.94 148.598C127.276 149.933 125.252 153.576 121.968 155.75C117.352 158.804 119.719 159.3 125.333 156.456C132.029 153.064 134.682 148.523 131.708 145.547C130.042 143.883 127.488 143.901 124.036 145.603ZM34.7499 146.435C34.4256 146.759 34.16 151.674 34.16 157.357V167.69H38.3492H42.5383V163.92C42.5383 160.17 42.5542 160.15 45.4707 160.15C48.2632 160.15 48.4031 160.01 48.4031 157.218C48.4031 154.425 48.2632 154.285 45.4707 154.285C41.5396 154.285 41.7114 152.779 45.6802 152.45C48.6629 152.204 48.8221 152.042 48.8221 149.258V146.326L42.0809 146.085C38.3726 145.953 35.0741 146.11 34.7499 146.435ZM50.9166 156.831V167.756L58.2476 167.514L65.5786 167.271V164.339C65.5786 161.563 65.422 161.402 62.6462 161.32C58.1454 161.185 57.6989 160.802 61.3895 160.24C64.564 159.758 64.7408 159.576 64.7408 156.799C64.7408 154.021 64.564 153.839 61.3895 153.357L58.0382 152.847L61.599 152.728L65.1597 152.609V149.258V145.907H58.0382H50.9166V156.831ZM69.8206 146.908C69.0942 149.185 66.832 163.181 66.8337 165.386C66.8354 167.55 67.0608 167.69 70.5093 167.69H74.1832L74.7948 162.873L75.4064 158.055L76.8014 162.663C78.0682 166.851 78.4335 167.295 80.8045 167.527C83.2962 167.772 83.4621 167.593 84.501 163.541C85.7217 158.777 86.7012 158.92 87.0966 163.92L87.3622 167.271L91.3888 167.529L95.4154 167.786L94.9555 165.015C94.7024 163.491 93.9283 158.851 93.2354 154.704C92.5425 150.557 91.9745 146.88 91.9728 146.535C91.9711 146.19 90.1337 145.907 87.89 145.907H83.8098L82.734 149.887C81.1489 155.75 80.9453 155.81 79.4564 150.856L78.095 146.326L74.132 146.07C71.4259 145.895 70.0594 146.161 69.8206 146.908ZM95.3216 149.647C95.3216 153.142 95.49 153.447 97.4162 153.447C99.4864 153.447 99.5107 153.531 99.5107 160.569V167.69H103.7H107.889V160.569C107.889 153.488 107.902 153.447 110.031 153.447C112.035 153.447 112.158 153.214 111.916 149.887L111.659 146.326L103.49 146.086L95.3216 145.847V149.647ZM144.17 147.546C140.542 149.758 138.794 152.666 138.74 156.585C138.646 163.414 143.16 168.008 149.968 168.01C152.146 168.012 154.169 167.77 154.466 167.474C154.761 167.178 155.205 165.158 155.449 162.986C155.859 159.349 155.768 159.091 154.304 159.722C153.428 160.098 151.788 160.442 150.657 160.488C148.026 160.591 146.112 157.281 147.405 154.864C148.134 153.503 148.864 153.323 151.96 153.748L155.645 154.253V150.589C155.645 148.02 155.249 146.771 154.32 146.415C151.682 145.403 146.791 145.948 144.17 147.546ZM158.159 156.799V167.783L162.138 167.527C164.553 167.372 166.159 166.859 166.223 166.224C166.281 165.649 166.375 164.046 166.432 162.663C166.512 160.743 166.933 160.15 168.213 160.15C169.64 160.15 169.888 160.709 169.888 163.92V167.69H174.078H178.267V156.753V145.815L174.287 146.07L170.307 146.326L170.053 149.831C169.843 152.71 169.506 153.314 168.168 153.214C166.556 153.092 166.313 152.507 166.184 148.42C166.125 146.527 165.736 146.301 162.138 146.07L158.159 145.815V156.799Z" fill="#02065C"/>
</g>
</g>
<defs>
<filter id="filter0_dd_561_28747" x="0.62419" y="0.12419" width="213.752" height="213.752" filterUnits="userSpaceOnUse" color-interpolation-filters="sRGB">
<feFlood flood-opacity="0" result="BackgroundImageFix"/>
<feColorMatrix in="SourceAlpha" type="matrix" values="0 0 0 0 0 0 0 0 0 0 0 0 0 0 0 0 0 0 127 0" result="hardAlpha"/>
<feOffset/>
<feGaussianBlur stdDeviation="5.1879"/>
<feComposite in2="hardAlpha" operator="out"/>
<feColorMatrix type="matrix" values="0 0 0 0 0.348594 0 0 0 0 0.492487 0 0 0 0 0.8625 0 0 0 0.25 0"/>
<feBlend mode="normal" in2="BackgroundImageFix" result="effect1_dropShadow_561_28747"/>
<feColorMatrix in="SourceAlpha" type="matrix" values="0 0 0 0 0 0 0 0 0 0 0 0 0 0 0 0 0 0 127 0" result="hardAlpha"/>
<feOffset dy="5.1879"/>
<feGaussianBlur stdDeviation="2.59395"/>
<feComposite in2="hardAlpha" operator="out"/>
<feColorMatrix type="matrix" values="0 0 0 0 0 0 0 0 0 0 0 0 0 0 0 0 0 0 0.25 0"/>
<feBlend mode="normal" in2="effect1_dropShadow_561_28747" result="effect2_dropShadow_561_28747"/>
<feBlend mode="normal" in="SourceGraphic" in2="effect2_dropShadow_561_28747" result="shape"/>
</filter>
<filter id="filter1_i_561_28747" x="72.76" y="33.6602" width="67.1399" height="75.3619" filterUnits="userSpaceOnUse" color-interpolation-filters="sRGB">
<feFlood flood-opacity="0" result="BackgroundImageFix"/>
<feBlend mode="normal" in="SourceGraphic" in2="BackgroundImageFix" result="shape"/>
<feColorMatrix in="SourceAlpha" type="matrix" values="0 0 0 0 0 0 0 0 0 0 0 0 0 0 0 0 0 0 127 0" result="hardAlpha"/>
<feOffset dy="1.62554"/>
<feGaussianBlur stdDeviation="0.812771"/>
<feComposite in2="hardAlpha" operator="arithmetic" k2="-1" k3="1"/>
<feColorMatrix type="matrix" values="0 0 0 0 1 0 0 0 0 1 0 0 0 0 1 0 0 0 0.39 0"/>
<feBlend mode="normal" in2="shape" result="effect1_innerShadow_561_28747"/>
</filter>
<filter id="filter2_i_561_28747" x="34.16" y="144.312" width="144.107" height="25.6334" filterUnits="userSpaceOnUse" color-interpolation-filters="sRGB">
<feFlood flood-opacity="0" result="BackgroundImageFix"/>
<feBlend mode="normal" in="SourceGraphic" in2="BackgroundImageFix" result="shape"/>
<feColorMatrix in="SourceAlpha" type="matrix" values="0 0 0 0 0 0 0 0 0 0 0 0 0 0 0 0 0 0 127 0" result="hardAlpha"/>
<feOffset dy="1.62554"/>
<feGaussianBlur stdDeviation="0.812771"/>
<feComposite in2="hardAlpha" operator="arithmetic" k2="-1" k3="1"/>
<feColorMatrix type="matrix" values="0 0 0 0 1 0 0 0 0 1 0 0 0 0 1 0 0 0 0.39 0"/>
<feBlend mode="normal" in2="shape" result="effect1_innerShadow_561_28747"/>
</filter>
</defs>
</svg>
