<svg width="371" height="371" viewBox="0 0 371 371" fill="none" xmlns="http://www.w3.org/2000/svg">
<g filter="url(#filter0_dd_556_27785)">
<rect x="33" y="33" width="305" height="305" rx="20.3333" fill="white" shape-rendering="crispEdges"/>
<g filter="url(#filter1_i_556_27785)">
<path d="M89.1677 119.321V178.867H72.6131V119.321H89.1677ZM126.552 164.762V178.867H119.373C107.267 178.867 101.213 172.87 101.213 160.877V145.251H95.3856V131.484H101.213V119.997H117.853V131.484H126.468V145.251H117.853V161.13C117.853 162.425 118.134 163.354 118.697 163.917C119.317 164.48 120.33 164.762 121.738 164.762H126.552ZM179.417 154.627C179.417 155.922 179.332 157.217 179.164 158.512H147.828C147.997 161.102 148.701 163.045 149.94 164.34C151.235 165.578 152.868 166.198 154.838 166.198C157.597 166.198 159.568 164.959 160.751 162.482H178.403C177.671 165.747 176.235 168.675 174.096 171.266C172.012 173.799 169.366 175.798 166.156 177.262C162.947 178.726 159.399 179.458 155.514 179.458C150.841 179.458 146.674 178.473 143.014 176.502C139.41 174.531 136.566 171.716 134.483 168.056C132.456 164.396 131.442 160.088 131.442 155.133C131.442 150.178 132.456 145.899 134.483 142.295C136.51 138.635 139.325 135.82 142.929 133.849C146.589 131.878 150.784 130.893 155.514 130.893C160.188 130.893 164.326 131.85 167.93 133.764C171.534 135.679 174.349 138.438 176.376 142.042C178.403 145.589 179.417 149.784 179.417 154.627ZM162.524 150.488C162.524 148.461 161.849 146.884 160.497 145.758C159.146 144.576 157.457 143.984 155.43 143.984C153.403 143.984 151.741 144.547 150.446 145.674C149.151 146.743 148.307 148.348 147.912 150.488H162.524ZM248.103 131.062C254.071 131.062 258.745 132.863 262.123 136.467C265.558 140.071 267.275 144.998 267.275 151.248V178.867H250.721V153.444C250.721 150.91 250.017 148.939 248.609 147.532C247.202 146.124 245.287 145.42 242.866 145.42C240.445 145.42 238.53 146.124 237.122 147.532C235.715 148.939 235.011 150.91 235.011 153.444V178.867H218.456V153.444C218.456 150.91 217.752 148.939 216.345 147.532C214.993 146.124 213.107 145.42 210.686 145.42C208.208 145.42 206.266 146.124 204.858 147.532C203.45 148.939 202.746 150.91 202.746 153.444V178.867H186.192V131.484H202.746V137.734C204.21 135.707 206.097 134.102 208.405 132.92C210.77 131.681 213.473 131.062 216.514 131.062C220.005 131.062 223.102 131.822 225.804 133.342C228.564 134.862 230.731 137.002 232.308 139.761C233.997 137.171 236.221 135.088 238.981 133.511C241.74 131.878 244.78 131.062 248.103 131.062Z" fill="#C22222"/>
</g>
<g filter="url(#filter2_d_556_27785)">
<path d="M312.588 129.457L292.317 178.867H275.34L295.78 131.399H271.708V117.21H312.588V129.457Z" fill="#00717D"/>
</g>
<path fill-rule="evenodd" clip-rule="evenodd" d="M58.2415 204.197C59.1628 204.486 66.8614 204.93 84.6828 205.722C92.7407 206.081 94.204 205.97 96.3611 204.837C98.2864 203.825 100.392 201.25 101.032 199.122C101.06 199.028 110.627 199.418 122.291 199.987C133.956 200.556 150.834 201.354 159.798 201.76C168.762 202.167 178.374 202.689 181.158 202.92C185.662 203.294 186.382 203.177 187.695 201.865C188.506 201.053 189.374 199.578 189.623 198.586C190.17 196.405 188.812 192.835 187.192 192.197C185.193 191.411 168.851 191.72 112.319 193.612L100.98 193.991L100.026 191.837C99.4486 190.531 97.9137 189.09 96.1294 188.18C93.2452 186.706 92.9037 186.693 79.0137 187.516C61.4517 188.557 57.3097 189.004 57.8043 189.804C58.0183 190.15 63.2573 190.432 69.4472 190.432C79.6508 190.432 82.8432 190.932 80.7811 192.207C80.3764 192.457 75.3487 192.822 69.6087 193.019C58.3578 193.406 57.0751 193.585 57.7519 194.679C58.0176 195.11 62.6698 195.393 69.489 195.393C80.3127 195.393 80.7853 195.452 80.7853 196.81C80.7853 198.17 80.3127 198.227 69.0929 198.227C62.662 198.227 57.4004 198.506 57.4004 198.847C57.4004 199.911 61.4814 200.353 71.3073 200.353C79.2596 200.353 80.7853 200.524 80.7853 201.416C80.7853 202.317 79.0577 202.479 69.489 202.479C62.6698 202.479 58.0176 202.762 57.7519 203.193C57.5088 203.585 57.7292 204.037 58.2415 204.197Z" fill="#00717D"/>
<path d="M129.067 252.664V281.334H121.096V252.664H129.067ZM147.067 274.543V281.334H143.61C137.781 281.334 134.867 278.447 134.867 272.672V265.149H132.061V258.52H134.867V252.989H142.878V258.52H147.026V265.149H142.878V272.794C142.878 273.418 143.013 273.865 143.285 274.136C143.583 274.407 144.071 274.543 144.749 274.543H147.067ZM172.52 269.663C172.52 270.286 172.479 270.91 172.398 271.533H157.31C157.392 272.78 157.731 273.716 158.327 274.339C158.951 274.936 159.737 275.234 160.686 275.234C162.014 275.234 162.963 274.638 163.532 273.445H172.032C171.679 275.017 170.988 276.427 169.958 277.674C168.955 278.894 167.68 279.856 166.135 280.561C164.59 281.266 162.882 281.619 161.011 281.619C158.761 281.619 156.755 281.144 154.992 280.195C153.257 279.246 151.888 277.891 150.885 276.129C149.909 274.366 149.421 272.292 149.421 269.907C149.421 267.521 149.909 265.46 150.885 263.725C151.861 261.963 153.217 260.608 154.952 259.659C156.714 258.71 158.734 258.235 161.011 258.235C163.261 258.235 165.254 258.696 166.989 259.618C168.724 260.54 170.08 261.868 171.056 263.603C172.032 265.311 172.52 267.331 172.52 269.663ZM164.386 267.67C164.386 266.694 164.061 265.935 163.41 265.393C162.76 264.823 161.946 264.539 160.97 264.539C159.994 264.539 159.195 264.81 158.571 265.352C157.948 265.867 157.541 266.64 157.351 267.67H164.386ZM205.59 258.317C208.464 258.317 210.714 259.184 212.341 260.919C213.995 262.654 214.822 265.027 214.822 268.036V281.334H206.851V269.093C206.851 267.873 206.512 266.924 205.834 266.247C205.157 265.569 204.235 265.23 203.069 265.23C201.903 265.23 200.981 265.569 200.304 266.247C199.626 266.924 199.287 267.873 199.287 269.093V281.334H191.316V269.093C191.316 267.873 190.977 266.924 190.3 266.247C189.649 265.569 188.741 265.23 187.575 265.23C186.382 265.23 185.447 265.569 184.769 266.247C184.091 266.924 183.752 267.873 183.752 269.093V281.334H175.782V258.52H183.752V261.529C184.457 260.553 185.365 259.781 186.477 259.211C187.616 258.615 188.917 258.317 190.381 258.317C192.062 258.317 193.553 258.683 194.854 259.415C196.183 260.147 197.227 261.177 197.986 262.505C198.799 261.258 199.87 260.255 201.198 259.496C202.527 258.71 203.991 258.317 205.59 258.317ZM245.313 257.544L235.553 281.334H227.379L237.22 258.479H225.63V251.647H245.313V257.544Z" fill="#00717D"/>
</g>
<defs>
<filter id="filter0_dd_556_27785" x="0.466667" y="0.466667" width="370.067" height="370.067" filterUnits="userSpaceOnUse" color-interpolation-filters="sRGB">
<feFlood flood-opacity="0" result="BackgroundImageFix"/>
<feColorMatrix in="SourceAlpha" type="matrix" values="0 0 0 0 0 0 0 0 0 0 0 0 0 0 0 0 0 0 127 0" result="hardAlpha"/>
<feOffset/>
<feGaussianBlur stdDeviation="16.2667"/>
<feComposite in2="hardAlpha" operator="out"/>
<feColorMatrix type="matrix" values="0 0 0 0 0.348594 0 0 0 0 0.492487 0 0 0 0 0.8625 0 0 0 0.25 0"/>
<feBlend mode="normal" in2="BackgroundImageFix" result="effect1_dropShadow_556_27785"/>
<feColorMatrix in="SourceAlpha" type="matrix" values="0 0 0 0 0 0 0 0 0 0 0 0 0 0 0 0 0 0 127 0" result="hardAlpha"/>
<feOffset dy="16.2667"/>
<feGaussianBlur stdDeviation="8.13333"/>
<feComposite in2="hardAlpha" operator="out"/>
<feColorMatrix type="matrix" values="0 0 0 0 0 0 0 0 0 0 0 0 0 0 0 0 0 0 0.25 0"/>
<feBlend mode="normal" in2="effect1_dropShadow_556_27785" result="effect2_dropShadow_556_27785"/>
<feBlend mode="normal" in="SourceGraphic" in2="effect2_dropShadow_556_27785" result="shape"/>
</filter>
<filter id="filter1_i_556_27785" x="72.613" y="119.322" width="194.662" height="66.7473" filterUnits="userSpaceOnUse" color-interpolation-filters="sRGB">
<feFlood flood-opacity="0" result="BackgroundImageFix"/>
<feBlend mode="normal" in="SourceGraphic" in2="BackgroundImageFix" result="shape"/>
<feColorMatrix in="SourceAlpha" type="matrix" values="0 0 0 0 0 0 0 0 0 0 0 0 0 0 0 0 0 0 127 0" result="hardAlpha"/>
<feOffset dy="6.61054"/>
<feGaussianBlur stdDeviation="3.30527"/>
<feComposite in2="hardAlpha" operator="arithmetic" k2="-1" k3="1"/>
<feColorMatrix type="matrix" values="0 0 0 0 0 0 0 0 0 0 0 0 0 0 0 0 0 0 0.25 0"/>
<feBlend mode="normal" in2="shape" result="effect1_innerShadow_556_27785"/>
</filter>
<filter id="filter2_d_556_27785" x="265.098" y="117.209" width="54.1007" height="74.8793" filterUnits="userSpaceOnUse" color-interpolation-filters="sRGB">
<feFlood flood-opacity="0" result="BackgroundImageFix"/>
<feColorMatrix in="SourceAlpha" type="matrix" values="0 0 0 0 0 0 0 0 0 0 0 0 0 0 0 0 0 0 127 0" result="hardAlpha"/>
<feOffset dy="6.61054"/>
<feGaussianBlur stdDeviation="3.30527"/>
<feComposite in2="hardAlpha" operator="out"/>
<feColorMatrix type="matrix" values="0 0 0 0 0 0 0 0 0 0 0 0 0 0 0 0 0 0 0.25 0"/>
<feBlend mode="normal" in2="BackgroundImageFix" result="effect1_dropShadow_556_27785"/>
<feBlend mode="normal" in="SourceGraphic" in2="effect1_dropShadow_556_27785" result="shape"/>
</filter>
</defs>
</svg>
