<svg width="32" height="32" viewBox="0 0 32 32" fill="none" xmlns="http://www.w3.org/2000/svg">
<path d="M26 12C29.3137 12 32 9.31371 32 6C32 2.68629 29.3137 0 26 0C22.6863 0 20 2.68629 20 6C20 6.25097 20.0154 6.49834 20.0453 6.74122L10.1652 11.6813C9.08607 10.6403 7.61781 10 6 10C2.68629 10 0 12.6863 0 16C0 19.3137 2.68629 22 6 22C7.61784 22 9.08613 21.3597 10.1653 20.3186L20.0453 25.2587C20.0154 25.5016 20 25.749 20 26C20 29.3137 22.6863 32 26 32C29.3137 32 32 29.3137 32 26C32 22.6863 29.3137 20 26 20C24.3822 20 22.9139 20.6403 21.8348 21.6813L11.9547 16.7412C11.9846 16.4983 12 16.251 12 16C12 15.749 11.9846 15.5016 11.9547 15.2587L21.8347 10.3186C22.9139 11.3597 24.3822 12 26 12Z" fill="#00717D"/>
</svg>
