<svg width="78" height="47" viewBox="0 0 78 47" fill="none" xmlns="http://www.w3.org/2000/svg">
<path fill-rule="evenodd" clip-rule="evenodd" d="M44.3402 2.80822C41.178 5.59635 39.2926 8.59544 37.2178 14.1375C36.46 16.1627 36.105 16.5143 34.5382 16.7941C33.5451 16.9714 30.0712 16.7454 26.8193 16.2908C20.6061 15.4234 16.7467 15.5916 14.21 16.8408C12.9543 17.4591 12.679 17.4561 12.1231 16.8187C11.4464 16.0422 10.5478 16.2546 10.5478 17.1909C10.5478 17.4968 10.7065 17.5957 10.9006 17.4109C11.3694 16.9643 13.1847 18.5571 13.1847 19.4154C13.1847 20.1312 13.8308 20.313 14.4109 19.7605C14.6018 19.5787 14.5164 19.1533 14.2216 18.8147C13.4637 17.9453 17.6549 17.4028 20.4727 18.0056C29.0602 19.8434 33.8541 28.6623 31.6265 38.525C30.8058 42.158 30.5342 42.4176 28.296 41.7145C23.6734 40.2614 18.4465 33.5766 17.6475 28.0963C17.3379 25.9721 17.9017 21.5195 18.7402 19.4632C19.0335 18.7449 18.8083 18.5842 17.5119 18.5842C15.4335 18.5842 14.3882 20.859 15.6671 22.5984C16.405 23.6014 16.3876 23.8164 15.4704 25.0339C14.644 26.1309 14.529 26.8476 14.8265 29.0446C15.9815 37.5717 24.5088 45.2043 33.8062 46.031C40.4908 46.6257 47.8605 43.6758 51.9478 38.7706C54.0157 36.2889 55.3758 35.5149 55.3758 36.8208C55.3758 37.4768 73.3661 45.2058 74.8892 45.2048C75.7436 45.2038 78.1981 40.1544 77.61 39.6069C77.4191 39.4286 73.0687 37.5807 67.9425 35.4998C62.0489 33.1075 58.2169 31.8181 57.5186 31.9919C56.4433 32.2596 56.4238 32.1567 56.7586 28.0028C57.43 19.6897 53.8158 12.9075 46.3174 8.40658C44.9082 7.56075 44.9056 7.56226 44.5375 9.15849C44.2759 10.2911 44.3729 10.822 44.8702 10.9797C46.5146 11.5016 50.7285 15.9136 52.0733 18.5214C53.3364 20.971 53.53 21.9474 53.53 25.8672C53.53 29.7874 53.338 30.7543 52.0849 33.1502C51.2907 34.6695 49.9532 36.648 49.1136 37.5466L47.5868 39.1805L47.2119 36.32C47.0051 34.7469 46.1518 31.1858 45.3154 28.4062C43.065 20.9308 42.7043 17.6414 43.5497 12.3057C44.4309 6.74455 44.9356 5.08202 46.6085 2.23111C47.3289 1.00405 47.83 0 47.7218 0C47.6137 0 46.0917 1.26372 44.3402 2.80822ZM29.1868 5.77516C24.8474 7.51303 26.0498 14.7282 30.8944 16.0221C33.148 16.6243 35.5065 15.5921 36.3598 13.6302C38.3 9.16954 33.5899 4.01217 29.1868 5.77516ZM34.8251 5.83342C34.8525 6.52606 36.5565 8.3011 37.5369 8.65822C38.1339 8.87621 38.7024 8.56931 39.2926 7.71143C39.773 7.01327 40.0689 6.34976 39.9502 6.23725C39.4761 5.78571 34.8087 5.41804 34.8251 5.83342ZM23.4161 9.45684C22.2848 10.2384 20.5407 11.7643 19.5403 12.8472L17.7213 14.8171L19.4369 14.9763C21.7068 15.1873 25.4281 12.139 25.8911 9.69039C26.063 8.78077 26.0393 8.0364 25.8384 8.0364C25.6374 8.0364 24.5473 8.6758 23.4161 9.45684ZM5.79337 16.1984C5.78809 16.9156 5.63726 17.1075 5.38095 16.7233C5.09722 16.2978 4.23546 16.7212 2.48875 18.1432C1.11965 19.2577 0 20.3944 0 20.6691C0 21.5396 8.097 29.6342 8.96772 29.6342C9.42602 29.6342 10.8247 28.6402 12.0767 27.4257L14.3524 25.2172L12.6763 24.8666C11.7539 24.6738 11.1232 24.398 11.274 24.2544C11.4254 24.1107 12.3161 24.2478 13.2549 24.5592C14.5781 24.9987 15.0554 24.9837 15.3829 24.4919C16.0658 23.4673 16.001 23.3699 11.8114 19.1281C7.71254 14.9783 5.80866 14.0517 5.79337 16.1984ZM6.16148 19.1809C5.99325 19.5812 5.86826 19.4622 5.84294 18.877C5.82026 18.3476 5.94473 18.0513 6.11982 18.218C6.29491 18.3848 6.3139 18.8182 6.16148 19.1809ZM9.37223 23.3252C10.1638 23.7345 10.4966 24.0781 10.1116 24.0891C9.20346 24.1152 6.32234 21.3713 6.34976 20.5064C6.36136 20.1397 6.7221 20.4567 7.15192 21.2106C7.58174 21.9645 8.58062 22.9158 9.37223 23.3252ZM41.0962 40.9982C41.1311 42.3659 40.9243 42.608 39.4882 42.8817C35.748 43.594 35.7153 43.5302 37.809 39.5572L39.7261 35.9192L40.3911 37.6736C40.7566 38.639 41.0741 40.1348 41.0962 40.9982Z" fill="#00717D"/>
</svg>
