<svg width="80" height="47" viewBox="0 0 80 47" fill="none" xmlns="http://www.w3.org/2000/svg">
<path fill-rule="evenodd" clip-rule="evenodd" d="M45.5055 2.80822C42.2889 5.59635 40.3711 8.59544 38.2607 14.1375C37.4898 16.1627 37.1287 16.5143 35.5349 16.7941C34.5248 16.9714 30.9911 16.7454 27.6833 16.2908C21.3633 15.4234 17.4375 15.5916 14.8572 16.8408C13.5798 17.4591 13.2998 17.4561 12.7344 16.8187C12.0461 16.0422 11.132 16.2546 11.132 17.1909C11.132 17.4968 11.2935 17.5957 11.4909 17.4109C11.9678 16.9643 13.8143 18.5571 13.8143 19.4154C13.8143 20.1312 14.4714 20.313 15.0615 19.7605C15.2557 19.5787 15.1688 19.1533 14.869 18.8147C14.0981 17.9453 18.3613 17.4028 21.2276 18.0056C29.9627 19.8434 34.8391 28.6623 32.5731 38.525C31.7384 42.158 31.4621 42.4176 29.1854 41.7145C24.4833 40.2614 19.1665 33.5766 18.3538 28.0963C18.0389 25.9721 18.6124 21.5195 19.4653 19.4632C19.7636 18.7449 19.5345 18.5842 18.2159 18.5842C16.1017 18.5842 15.0385 20.859 16.3394 22.5984C17.0899 23.6014 17.0722 23.8164 16.1393 25.0339C15.2987 26.1309 15.1817 26.8476 15.4843 29.0446C16.6591 37.5717 25.3331 45.2043 34.7903 46.031C41.5899 46.6257 49.0864 43.6758 53.2439 38.7706C55.3474 36.2889 56.7309 35.5149 56.7309 36.8208C56.7309 37.4768 75.0305 45.2058 76.5798 45.2048C77.4489 45.2038 79.9456 40.1544 79.3474 39.6069C79.1532 39.4286 74.728 37.5807 69.5136 35.4998C63.5187 33.1075 59.6208 31.8181 58.9105 31.9919C57.8167 32.2596 57.7968 32.1567 58.1375 28.0028C58.8204 19.6897 55.1441 12.9075 47.5167 8.40658C46.0833 7.56075 46.0806 7.56226 45.7062 9.15849C45.4401 10.2911 45.5388 10.822 46.0447 10.9797C47.7173 11.5016 52.0036 15.9136 53.3716 18.5214C54.6564 20.971 54.8533 21.9474 54.8533 25.8672C54.8533 29.7874 54.658 30.7543 53.3834 33.1502C52.5755 34.6695 51.215 36.648 50.361 37.5466L48.808 39.1805L48.4265 36.32C48.2162 34.7469 47.3483 31.1858 46.4974 28.4062C44.2084 20.9308 43.8414 17.6414 44.7014 12.3057C45.5978 6.74455 46.1112 5.08202 47.8128 2.23111C48.5456 1.00405 49.0553 0 48.9453 0C48.8353 0 47.2871 1.26372 45.5055 2.80822ZM30.0915 5.77516C25.6775 7.51303 26.9006 14.7282 31.8285 16.0221C34.1208 16.6243 36.5198 15.5921 37.3878 13.6302C39.3615 9.16954 34.5704 4.01217 30.0915 5.77516ZM35.8267 5.83342C35.8546 6.52606 37.5879 8.3011 38.5852 8.65822C39.1925 8.87621 39.7708 8.56931 40.3711 7.71143C40.8598 7.01327 41.1608 6.34976 41.0401 6.23725C40.5578 5.78571 35.8101 5.41804 35.8267 5.83342ZM24.2216 9.45684C23.0709 10.2384 21.2968 11.7643 20.2791 12.8472L18.4289 14.8171L20.174 14.9763C22.4829 15.1873 26.2681 12.139 26.7392 9.69039C26.914 8.78077 26.8899 8.0364 26.6855 8.0364C26.4811 8.0364 25.3723 8.6758 24.2216 9.45684ZM6.29582 16.1984C6.29046 16.9156 6.13703 17.1075 5.87631 16.7233C5.5877 16.2978 4.71113 16.7212 2.93438 18.1432C1.54173 19.2577 0.402832 20.3944 0.402832 20.6691C0.402832 21.5396 8.63907 29.6342 9.52476 29.6342C9.99094 29.6342 11.4136 28.6402 12.6872 27.4257L15.002 25.2172L13.2971 24.8666C12.3589 24.6738 11.7173 24.398 11.8707 24.2544C12.0247 24.1107 12.9307 24.2478 13.8856 24.5592C15.2316 24.9987 15.7171 24.9837 16.0502 24.4919C16.7449 23.4673 16.679 23.3699 12.4173 19.1281C8.24799 14.9783 6.31138 14.0517 6.29582 16.1984ZM6.67027 19.1809C6.49914 19.5812 6.372 19.4622 6.34625 18.877C6.32318 18.3476 6.44978 18.0513 6.62789 18.218C6.80599 18.3848 6.8253 18.8182 6.67027 19.1809ZM9.93622 23.3252C10.7414 23.7345 11.0799 24.0781 10.6883 24.0891C9.76455 24.1152 6.83389 21.3713 6.86178 20.5064C6.87359 20.1397 7.24052 20.4567 7.67773 21.2106C8.11495 21.9645 9.131 22.9158 9.93622 23.3252ZM42.2058 40.9982C42.2412 42.3659 42.0309 42.608 40.5701 42.8817C36.7655 43.594 36.7323 43.5302 38.862 39.5572L40.8121 35.9192L41.4885 37.6736C41.8603 38.639 42.1832 40.1348 42.2058 40.9982Z" fill="#E5E5E5"/>
</svg>
