<svg width="18" height="14" viewBox="0 0 18 14" fill="none" xmlns="http://www.w3.org/2000/svg">
<path fill-rule="evenodd" clip-rule="evenodd" d="M17.3333 1.91245C16.7135 2.18014 16.0531 2.35757 15.3646 2.44373C16.0729 2.02732 16.6135 1.37296 16.8677 0.584241C16.2073 0.971933 15.4781 1.24578 14.701 1.3986C14.074 0.741164 13.1802 0.333984 12.2052 0.333984C10.3135 0.333984 8.79062 1.84578 8.79062 3.69911C8.79062 3.96578 8.81354 4.22219 8.86979 4.46629C6.02916 4.32988 3.51562 2.98937 1.82708 0.947318C1.53229 1.45091 1.35937 2.02732 1.35937 2.64783C1.35937 3.81296 1.96875 4.84578 2.87708 5.44373C2.32812 5.43347 1.78958 5.27655 1.33333 5.02937C1.33333 5.03963 1.33333 5.05296 1.33333 5.06629C1.33333 6.70116 2.51771 8.05911 4.07083 8.37193C3.79271 8.44681 3.48958 8.4827 3.175 8.4827C2.95625 8.4827 2.73541 8.47039 2.52812 8.42527C2.97083 9.75757 4.22708 10.7371 5.72083 10.7689C4.55833 11.6642 3.08229 12.2037 1.48437 12.2037C1.20416 12.2037 0.935414 12.1914 0.666664 12.1576C2.18021 13.1186 3.97396 13.6673 5.90833 13.6673C12.1958 13.6673 15.6333 8.53911 15.6333 4.09398C15.6333 3.94527 15.6281 3.80168 15.6208 3.65911C16.299 3.18527 16.8687 2.59347 17.3333 1.91245Z" fill="white"/>
</svg>
