<svg width="18" height="18" viewBox="0 0 18 18" fill="none" xmlns="http://www.w3.org/2000/svg">
<path fill-rule="evenodd" clip-rule="evenodd" d="M17.3333 8.99935C17.3333 4.39768 13.6016 0.666016 8.99996 0.666016C4.39829 0.666016 0.666626 4.39768 0.666626 8.99935C0.666626 13.601 4.39829 17.3327 8.99996 17.3327C9.04891 17.3327 9.09762 17.3317 9.14644 17.3308V10.8436H7.35608V8.75712H9.14644V7.2217C9.14644 5.441 10.2335 4.47181 11.8219 4.47181C12.5826 4.47181 13.2364 4.52852 13.427 4.55383V6.41489H12.3317C11.4676 6.41489 11.3002 6.82561 11.3002 7.4282V8.75712H13.3665L13.0972 10.8436H11.3002V17.0107C14.7834 16.0122 17.3333 12.8031 17.3333 8.99935Z" fill="white"/>
</svg>
