<svg width="9" height="6" viewBox="0 0 9 6" fill="none" xmlns="http://www.w3.org/2000/svg">
<path d="M7.82558 0.536191C7.68397 0.39542 7.49241 0.316406 7.29273 0.316406C7.09306 0.316406 6.9015 0.39542 6.75988 0.536191L4.04651 3.21177L1.37093 0.536191C1.22932 0.39542 1.03776 0.316406 0.838082 0.316406C0.638407 0.316406 0.446845 0.39542 0.305234 0.536191C0.234392 0.606454 0.178164 0.690048 0.139792 0.782151C0.101421 0.874254 0.081665 0.973043 0.081665 1.07282C0.081665 1.1726 0.101421 1.27138 0.139792 1.36349C0.178164 1.45559 0.234392 1.53918 0.305234 1.60945L3.50988 4.8141C3.58015 4.88494 3.66374 4.94117 3.75584 4.97954C3.84795 5.01791 3.94674 5.03767 4.04651 5.03767C4.14629 5.03767 4.24508 5.01791 4.33718 4.97954C4.42928 4.94117 4.51288 4.88494 4.58314 4.8141L7.82558 1.60945C7.89642 1.53918 7.95265 1.45559 7.99102 1.36349C8.0294 1.27138 8.04915 1.1726 8.04915 1.07282C8.04915 0.973043 8.0294 0.874254 7.99102 0.782151C7.95265 0.690048 7.89642 0.606454 7.82558 0.536191Z" fill="#858585"/>
</svg>
