<svg width="21" height="22" viewBox="0 0 21 22" fill="none" xmlns="http://www.w3.org/2000/svg">
<path fill-rule="evenodd" clip-rule="evenodd" d="M7.93869 3.1877C5.19422 3.1877 2.96939 5.51041 2.96939 8.37561C2.96939 11.2408 5.19422 13.5635 7.93869 13.5635C10.6832 13.5635 12.908 11.2408 12.908 8.37561C12.908 5.51041 10.6832 3.1877 7.93869 3.1877ZM0.484741 8.37561C0.484741 4.07781 3.82199 0.59375 7.93869 0.59375C12.0554 0.59375 15.3926 4.07781 15.3926 8.37561C15.3926 10.0563 14.8823 11.6125 14.0146 12.8846L19.9981 19.1313C20.4832 19.6378 20.4832 20.459 19.9981 20.9655C19.5129 21.472 18.7263 21.472 18.2412 20.9655L12.2577 14.7188C11.0392 15.6247 9.54854 16.1575 7.93869 16.1575C3.82199 16.1575 0.484741 12.6734 0.484741 8.37561Z" fill="#00717D"/>
</svg>
